<svg width="20" height="20" viewBox="0 0 20 20" fill="none" xmlns="http://www.w3.org/2000/svg">
<path d="M19.4667 9.85342C19.468 11.6814 18.9272 13.4688 17.9126 14.9894C16.8979 16.5099 15.4551 17.6954 13.7666 18.3959C12.0782 19.0963 10.2198 19.2803 8.42677 18.9245C6.63372 18.5687 4.98648 17.689 3.69341 16.3969C2.40035 15.1048 1.51955 13.4582 1.16244 11.6654C0.805327 9.87257 0.987921 8.01416 1.68717 6.32517C2.38641 4.63618 3.57087 3.19249 5.09071 2.17676C6.61056 1.16103 8.39758 0.618899 10.2256 0.618899C11.4388 0.618025 12.6404 0.856217 13.7615 1.3199C14.8827 1.78359 15.9014 2.46369 16.7596 3.32128C17.6179 4.17887 18.2986 5.19716 18.7631 6.31798C19.2276 7.4388 19.4667 8.64016 19.4667 9.85342Z" fill="#FFCC03"/>
<path d="M9.08173 13.0802C9.08567 12.8534 9.1565 12.6329 9.28534 12.4462C9.41418 12.2596 9.59529 12.1152 9.80593 12.0311C10.0166 11.9471 10.2473 11.9271 10.4693 11.9737C10.6912 12.0204 10.8944 12.1315 11.0534 12.2933C11.2124 12.455 11.3201 12.6601 11.3629 12.8828C11.4057 13.1055 11.3818 13.3359 11.2941 13.5451C11.2064 13.7542 11.0589 13.9328 10.8701 14.0584C10.6813 14.184 10.4595 14.2511 10.2327 14.2511C10.0783 14.2569 9.92442 14.2304 9.78083 14.1734C9.63724 14.1163 9.50711 14.0299 9.3988 13.9197C9.29048 13.8095 9.20633 13.6779 9.15174 13.5333C9.09715 13.3888 9.0733 13.2345 9.08173 13.0802ZM9.50088 11.2705L9.20819 5.45569H11.2507L10.9646 11.2705H9.50088Z" fill="white"/>
</svg>
