<svg width="18" height="19" viewBox="0 0 18 19" fill="none" xmlns="http://www.w3.org/2000/svg">
<g clip-path="url(#clip0)">
<path d="M9 0.5C4.0567 0.5 0 4.5567 0 9.5C0 14.4433 4.0567 18.5 9 18.5C13.9433 18.5 18 14.4433 18 9.5C18 4.5567 13.9433 0.5 9 0.5ZM9 16.3555C5.22002 16.3555 2.14453 13.28 2.14453 9.5C2.14453 5.72002 5.22002 2.64453 9 2.64453C12.78 2.64453 15.8555 5.72002 15.8555 9.5C15.8555 13.28 12.78 16.3555 9 16.3555Z" fill="#B6B6B6"/>
<path d="M9 0.5C4.0567 0.5 0 4.5567 0 9.5C0 14.4433 4.0567 18.5 9 18.5C13.9433 18.5 18 14.4433 18 9.5C18 4.5567 13.9433 0.5 9 0.5ZM9 16.3555C5.22002 16.3555 2.14453 13.28 2.14453 9.5C2.14453 5.72002 5.22002 2.64453 9 2.64453C12.78 2.64453 15.8555 5.72002 15.8555 9.5C15.8555 13.28 12.78 16.3555 9 16.3555Z" fill="#FFCC00"/>
<path d="M10.0547 7.91797C10.0547 8.50052 9.58255 8.97266 9 8.97266C8.41745 8.97266 7.94531 8.50052 7.94531 7.91797C7.94531 7.33542 8.41745 6.86328 9 6.86328C9.58255 6.86328 10.0547 7.33542 10.0547 7.91797Z" fill="#B6B6B6"/>
<path d="M10.0547 7.91797C10.0547 8.50052 9.58255 8.97266 9 8.97266C8.41745 8.97266 7.94531 8.50052 7.94531 7.91797C7.94531 7.33542 8.41745 6.86328 9 6.86328C9.58255 6.86328 10.0547 7.33542 10.0547 7.91797Z" fill="#FFCC00"/>
<path d="M9 10.0273C8.06575 10.0273 7.28078 9.41289 7.00433 8.5701C5.60866 8.72226 4.30719 9.0145 3.20238 9.43939C3.2021 9.45972 3.19922 9.47949 3.19922 9.49995C3.19922 10.1094 3.29494 10.6966 3.46989 11.249C4.33287 10.7985 5.17786 10.5546 5.83594 10.5546C6.38649 10.5546 6.80933 10.7102 7.12807 11.031C7.86497 11.7711 7.94943 13.2732 7.95108 15.2008C8.29179 15.2634 8.64143 15.3007 9 15.3007C9.3587 15.3007 9.70834 15.2634 10.0493 15.2008C10.0506 13.2747 10.1346 11.7719 10.8719 11.031C11.1907 10.7106 11.613 10.5546 12.1641 10.5546C12.8135 10.5546 13.6603 10.7892 14.5313 11.2455C14.7057 10.6943 14.8008 10.1082 14.8008 9.49995C14.8008 9.4799 14.7979 9.46054 14.7978 9.44063C13.6008 8.97906 12.2764 8.71017 10.9958 8.56982C10.7194 9.41289 9.93439 10.0273 9 10.0273Z" fill="#B6B6B6"/>
<path d="M9 10.0273C8.06575 10.0273 7.28078 9.41289 7.00433 8.5701C5.60866 8.72226 4.30719 9.0145 3.20238 9.43939C3.2021 9.45972 3.19922 9.47949 3.19922 9.49995C3.19922 10.1094 3.29494 10.6966 3.46989 11.249C4.33287 10.7985 5.17786 10.5546 5.83594 10.5546C6.38649 10.5546 6.80933 10.7102 7.12807 11.031C7.86497 11.7711 7.94943 13.2732 7.95108 15.2008C8.29179 15.2634 8.64143 15.3007 9 15.3007C9.3587 15.3007 9.70834 15.2634 10.0493 15.2008C10.0506 13.2747 10.1346 11.7719 10.8719 11.031C11.1907 10.7106 11.613 10.5546 12.1641 10.5546C12.8135 10.5546 13.6603 10.7892 14.5313 11.2455C14.7057 10.6943 14.8008 10.1082 14.8008 9.49995C14.8008 9.4799 14.7979 9.46054 14.7978 9.44063C13.6008 8.97906 12.2764 8.71017 10.9958 8.56982C10.7194 9.41289 9.93439 10.0273 9 10.0273Z" fill="#FFCC00"/>
</g>
<defs>
<clipPath id="clip0">
<rect width="18" height="18" fill="white" transform="translate(0 0.5)"/>
</clipPath>
</defs>
</svg>
