<svg width="57" height="45" viewBox="0 0 57 45" fill="none" xmlns="http://www.w3.org/2000/svg">
<path d="M36.9133 39.3233V35.8903C37.1528 35.8903 37.3724 35.8571 37.5786 35.8571C39.6478 35.8571 41.7102 35.8571 43.7727 35.8571C45.9269 35.8816 48.0145 35.1105 49.6354 33.6914C51.2563 32.2722 52.2967 30.3049 52.5571 28.1663C52.8175 26.0278 52.2797 23.8683 51.0467 22.1016C49.8137 20.335 47.9723 19.0854 45.8751 18.5923C45.7354 18.5517 45.5931 18.5206 45.4493 18.4991C44.9409 18.4723 44.4593 18.2632 44.0927 17.91C43.7261 17.5568 43.4991 17.0833 43.4533 16.5763C43.0539 14.5632 42.2132 12.6636 40.9917 11.0144C37.1661 5.87815 32.0366 3.57616 25.6895 4.54751C19.3425 5.51886 15.151 9.29119 13.0486 15.3256C12.6382 16.8758 12.3798 18.4623 12.2769 20.0626C12.2737 20.3081 12.2208 20.5504 12.1213 20.7749C12.0219 20.9993 11.8779 21.2013 11.6982 21.3686C11.5185 21.5359 11.3067 21.665 11.0757 21.7481C10.8447 21.8312 10.5992 21.8667 10.3541 21.8523C8.59292 22.007 6.95534 22.822 5.76988 24.1336C4.58441 25.4453 3.93871 27.1567 3.96228 28.9245C3.98585 30.6923 4.67696 32.3859 5.89698 33.6655C7.11699 34.945 8.77569 35.716 10.5404 35.8238C13.2016 35.857 15.7964 35.8238 18.4243 35.8238H19.2293V39.3034C19.0497 39.3034 18.8701 39.3034 18.6904 39.3034C16.0292 39.3034 13.3081 39.3034 10.6136 39.3034C8.02558 39.3268 5.51978 38.3952 3.57558 36.6868C1.63137 34.9785 0.385248 32.6133 0.0755863 30.0437C-0.234075 27.4742 0.414471 24.8807 1.89715 22.7594C3.37983 20.638 5.59255 19.1378 8.11203 18.5457C8.63762 18.4392 8.77734 18.213 8.86383 17.6941C9.75091 10.8414 13.2504 5.80496 19.3624 2.58485C22.1682 1.11321 25.3113 0.404295 28.4772 0.529045C33.2673 0.621877 37.8449 2.52329 41.2911 5.85153C43.7952 8.20089 45.6064 11.1926 46.5271 14.5006C46.5681 14.6894 46.6637 14.8621 46.8022 14.9969C46.9406 15.1318 47.1156 15.223 47.3055 15.259C50.1039 16.0977 52.5109 17.908 54.093 20.3639C55.6752 22.8198 56.3285 25.7598 55.9354 28.6546C55.5423 31.5494 54.1285 34.2088 51.9486 36.1537C49.7688 38.0987 46.9662 39.2015 44.0455 39.2635C41.7568 39.3433 39.4615 39.2635 37.1661 39.2635C37.0543 39.2555 36.9432 39.24 36.8335 39.2169" fill="#276C71"/>
<path d="M29.8871 44.6057H26.3942V28.0528L26.2412 27.9663L22.409 31.7519L19.8809 29.1972C20.7591 28.3589 21.7038 27.4873 22.6153 26.5825C23.9459 25.2519 25.2765 23.9212 26.6471 22.5906C27.6251 21.6126 28.643 21.606 29.5811 22.5906L36.2675 29.2437L33.7326 31.7719L29.8871 27.82V44.6057Z" fill="#276C71"/>
</svg>
